<svg xmlns="http://www.w3.org/2000/svg" width="1040" height="560" viewBox="0 0 1040 560">
<rect width="100%" height="100%" fill="white"/>
<text x="520.0" y="32" text-anchor="middle" font-family="Arial" font-size="22">RTT maximo por condicion y tamano</text>
<text x="22" y="280.0" transform="rotate(-90 22 280.0)" text-anchor="middle" font-family="Arial" font-size="14">RTT maximo (ms)</text>
<line x1="78" y1="482" x2="962" y2="482" stroke="#333"/>
<line x1="78" y1="78" x2="78" y2="482" stroke="#333"/>
<line x1="78" y1="482.0" x2="962" y2="482.0" stroke="#ddd"/>
<text x="70" y="486.0" text-anchor="end" font-family="Arial" font-size="12">0.00</text>
<line x1="78" y1="401.2" x2="962" y2="401.2" stroke="#ddd"/>
<text x="70" y="405.2" text-anchor="end" font-family="Arial" font-size="12">0.70</text>
<line x1="78" y1="320.4" x2="962" y2="320.4" stroke="#ddd"/>
<text x="70" y="324.4" text-anchor="end" font-family="Arial" font-size="12">1.40</text>
<line x1="78" y1="239.6" x2="962" y2="239.6" stroke="#ddd"/>
<text x="70" y="243.6" text-anchor="end" font-family="Arial" font-size="12">2.10</text>
<line x1="78" y1="158.8" x2="962" y2="158.8" stroke="#ddd"/>
<text x="70" y="162.8" text-anchor="end" font-family="Arial" font-size="12">2.80</text>
<line x1="78" y1="78.0" x2="962" y2="78.0" stroke="#ddd"/>
<text x="70" y="82.0" text-anchor="end" font-family="Arial" font-size="12">3.51</text>
<rect x="89.8" y="463.6" width="50.1" height="18.4" fill="#1971c2"/>
<text x="114.8" y="457.6" text-anchor="middle" font-family="Arial" font-size="11">0.160</text>
<text x="114.8" y="500" text-anchor="middle" font-family="Arial" font-size="10">Sin limitacion</text>
<text x="114.8" y="514" text-anchor="middle" font-family="Arial" font-size="10">120B M2</text>
<rect x="163.5" y="467.0" width="50.1" height="15.0" fill="#f08c00"/>
<text x="188.5" y="461.0" text-anchor="middle" font-family="Arial" font-size="11">0.130</text>
<text x="188.5" y="500" text-anchor="middle" font-family="Arial" font-size="10">Sin limitacion</text>
<text x="188.5" y="514" text-anchor="middle" font-family="Arial" font-size="10">120B M3</text>
<rect x="237.1" y="145.3" width="50.1" height="336.7" fill="#1971c2"/>
<text x="262.2" y="139.3" text-anchor="middle" font-family="Arial" font-size="11">2.921</text>
<text x="262.2" y="500" text-anchor="middle" font-family="Arial" font-size="10">500 kbit/s</text>
<text x="262.2" y="514" text-anchor="middle" font-family="Arial" font-size="10">120B M2</text>
<rect x="310.8" y="439.8" width="50.1" height="42.2" fill="#f08c00"/>
<text x="335.8" y="433.8" text-anchor="middle" font-family="Arial" font-size="11">0.366</text>
<text x="335.8" y="500" text-anchor="middle" font-family="Arial" font-size="10">500 kbit/s</text>
<text x="335.8" y="514" text-anchor="middle" font-family="Arial" font-size="10">120B M3</text>
<rect x="384.5" y="463.8" width="50.1" height="18.2" fill="#1971c2"/>
<text x="409.5" y="457.8" text-anchor="middle" font-family="Arial" font-size="11">0.158</text>
<text x="409.5" y="500" text-anchor="middle" font-family="Arial" font-size="10">Sin limitacion</text>
<text x="409.5" y="514" text-anchor="middle" font-family="Arial" font-size="10">512B M2</text>
<rect x="458.1" y="452.8" width="50.1" height="29.2" fill="#f08c00"/>
<text x="483.2" y="446.8" text-anchor="middle" font-family="Arial" font-size="11">0.253</text>
<text x="483.2" y="500" text-anchor="middle" font-family="Arial" font-size="10">Sin limitacion</text>
<text x="483.2" y="514" text-anchor="middle" font-family="Arial" font-size="10">512B M3</text>
<rect x="531.8" y="469.2" width="50.1" height="12.8" fill="#1971c2"/>
<text x="556.8" y="463.2" text-anchor="middle" font-family="Arial" font-size="11">0.111</text>
<text x="556.8" y="500" text-anchor="middle" font-family="Arial" font-size="10">500 kbit/s</text>
<text x="556.8" y="514" text-anchor="middle" font-family="Arial" font-size="10">512B M2</text>
<rect x="605.5" y="437.5" width="50.1" height="44.5" fill="#f08c00"/>
<text x="630.5" y="431.5" text-anchor="middle" font-family="Arial" font-size="11">0.386</text>
<text x="630.5" y="500" text-anchor="middle" font-family="Arial" font-size="10">500 kbit/s</text>
<text x="630.5" y="514" text-anchor="middle" font-family="Arial" font-size="10">512B M3</text>
<rect x="679.1" y="463.8" width="50.1" height="18.2" fill="#1971c2"/>
<text x="704.2" y="457.8" text-anchor="middle" font-family="Arial" font-size="11">0.158</text>
<text x="704.2" y="500" text-anchor="middle" font-family="Arial" font-size="10">Sin limitacion</text>
<text x="704.2" y="514" text-anchor="middle" font-family="Arial" font-size="10">1024B M2</text>
<rect x="752.8" y="472.1" width="50.1" height="9.9" fill="#f08c00"/>
<text x="777.8" y="466.1" text-anchor="middle" font-family="Arial" font-size="11">0.086</text>
<text x="777.8" y="500" text-anchor="middle" font-family="Arial" font-size="10">Sin limitacion</text>
<text x="777.8" y="514" text-anchor="middle" font-family="Arial" font-size="10">1024B M3</text>
<rect x="826.5" y="465.3" width="50.1" height="16.7" fill="#1971c2"/>
<text x="851.5" y="459.3" text-anchor="middle" font-family="Arial" font-size="11">0.145</text>
<text x="851.5" y="500" text-anchor="middle" font-family="Arial" font-size="10">500 kbit/s</text>
<text x="851.5" y="514" text-anchor="middle" font-family="Arial" font-size="10">1024B M2</text>
<rect x="900.1" y="259.2" width="50.1" height="222.8" fill="#f08c00"/>
<text x="925.2" y="253.2" text-anchor="middle" font-family="Arial" font-size="11">1.933</text>
<text x="925.2" y="500" text-anchor="middle" font-family="Arial" font-size="10">500 kbit/s</text>
<text x="925.2" y="514" text-anchor="middle" font-family="Arial" font-size="10">1024B M3</text>
</svg>