<svg xmlns="http://www.w3.org/2000/svg" width="1040" height="560" viewBox="0 0 1040 560">
<rect width="100%" height="100%" fill="white"/>
<text x="520.0" y="32" text-anchor="middle" font-family="Arial" font-size="22">RTT medio por condicion y tamano</text>
<text x="22" y="280.0" transform="rotate(-90 22 280.0)" text-anchor="middle" font-family="Arial" font-size="14">RTT medio (ms)</text>
<line x1="78" y1="482" x2="962" y2="482" stroke="#333"/>
<line x1="78" y1="78" x2="78" y2="482" stroke="#333"/>
<line x1="78" y1="482.0" x2="962" y2="482.0" stroke="#ddd"/>
<text x="70" y="486.0" text-anchor="end" font-family="Arial" font-size="12">0.00</text>
<line x1="78" y1="401.2" x2="962" y2="401.2" stroke="#ddd"/>
<text x="70" y="405.2" text-anchor="end" font-family="Arial" font-size="12">0.03</text>
<line x1="78" y1="320.4" x2="962" y2="320.4" stroke="#ddd"/>
<text x="70" y="324.4" text-anchor="end" font-family="Arial" font-size="12">0.06</text>
<line x1="78" y1="239.6" x2="962" y2="239.6" stroke="#ddd"/>
<text x="70" y="243.6" text-anchor="end" font-family="Arial" font-size="12">0.09</text>
<line x1="78" y1="158.8" x2="962" y2="158.8" stroke="#ddd"/>
<text x="70" y="162.8" text-anchor="end" font-family="Arial" font-size="12">0.12</text>
<line x1="78" y1="78.0" x2="962" y2="78.0" stroke="#ddd"/>
<text x="70" y="82.0" text-anchor="end" font-family="Arial" font-size="12">0.15</text>
<rect x="89.8" y="308.4" width="50.1" height="173.6" fill="#1971c2"/>
<text x="114.8" y="302.4" text-anchor="middle" font-family="Arial" font-size="11">0.066</text>
<text x="114.8" y="500" text-anchor="middle" font-family="Arial" font-size="10">Sin limitacion</text>
<text x="114.8" y="514" text-anchor="middle" font-family="Arial" font-size="10">120B M2</text>
<rect x="163.5" y="308.4" width="50.1" height="173.6" fill="#f08c00"/>
<text x="188.5" y="302.4" text-anchor="middle" font-family="Arial" font-size="11">0.066</text>
<text x="188.5" y="500" text-anchor="middle" font-family="Arial" font-size="10">Sin limitacion</text>
<text x="188.5" y="514" text-anchor="middle" font-family="Arial" font-size="10">120B M3</text>
<rect x="237.1" y="145.3" width="50.1" height="336.7" fill="#1971c2"/>
<text x="262.2" y="139.3" text-anchor="middle" font-family="Arial" font-size="11">0.128</text>
<text x="262.2" y="500" text-anchor="middle" font-family="Arial" font-size="10">500 kbit/s</text>
<text x="262.2" y="514" text-anchor="middle" font-family="Arial" font-size="10">120B M2</text>
<rect x="310.8" y="279.5" width="50.1" height="202.5" fill="#f08c00"/>
<text x="335.8" y="273.5" text-anchor="middle" font-family="Arial" font-size="11">0.077</text>
<text x="335.8" y="500" text-anchor="middle" font-family="Arial" font-size="10">500 kbit/s</text>
<text x="335.8" y="514" text-anchor="middle" font-family="Arial" font-size="10">120B M3</text>
<rect x="384.5" y="226.9" width="50.1" height="255.1" fill="#1971c2"/>
<text x="409.5" y="220.9" text-anchor="middle" font-family="Arial" font-size="11">0.097</text>
<text x="409.5" y="500" text-anchor="middle" font-family="Arial" font-size="10">Sin limitacion</text>
<text x="409.5" y="514" text-anchor="middle" font-family="Arial" font-size="10">512B M2</text>
<rect x="458.1" y="258.4" width="50.1" height="223.6" fill="#f08c00"/>
<text x="483.2" y="252.4" text-anchor="middle" font-family="Arial" font-size="11">0.085</text>
<text x="483.2" y="500" text-anchor="middle" font-family="Arial" font-size="10">Sin limitacion</text>
<text x="483.2" y="514" text-anchor="middle" font-family="Arial" font-size="10">512B M3</text>
<rect x="531.8" y="300.5" width="50.1" height="181.5" fill="#1971c2"/>
<text x="556.8" y="294.5" text-anchor="middle" font-family="Arial" font-size="11">0.069</text>
<text x="556.8" y="500" text-anchor="middle" font-family="Arial" font-size="10">500 kbit/s</text>
<text x="556.8" y="514" text-anchor="middle" font-family="Arial" font-size="10">512B M2</text>
<rect x="605.5" y="276.8" width="50.1" height="205.2" fill="#f08c00"/>
<text x="630.5" y="270.8" text-anchor="middle" font-family="Arial" font-size="11">0.078</text>
<text x="630.5" y="500" text-anchor="middle" font-family="Arial" font-size="10">500 kbit/s</text>
<text x="630.5" y="514" text-anchor="middle" font-family="Arial" font-size="10">512B M3</text>
<rect x="679.1" y="300.5" width="50.1" height="181.5" fill="#1971c2"/>
<text x="704.2" y="294.5" text-anchor="middle" font-family="Arial" font-size="11">0.069</text>
<text x="704.2" y="500" text-anchor="middle" font-family="Arial" font-size="10">Sin limitacion</text>
<text x="704.2" y="514" text-anchor="middle" font-family="Arial" font-size="10">1024B M2</text>
<rect x="752.8" y="305.8" width="50.1" height="176.2" fill="#f08c00"/>
<text x="777.8" y="299.8" text-anchor="middle" font-family="Arial" font-size="11">0.067</text>
<text x="777.8" y="500" text-anchor="middle" font-family="Arial" font-size="10">Sin limitacion</text>
<text x="777.8" y="514" text-anchor="middle" font-family="Arial" font-size="10">1024B M3</text>
<rect x="826.5" y="290.0" width="50.1" height="192.0" fill="#1971c2"/>
<text x="851.5" y="284.0" text-anchor="middle" font-family="Arial" font-size="11">0.073</text>
<text x="851.5" y="500" text-anchor="middle" font-family="Arial" font-size="10">500 kbit/s</text>
<text x="851.5" y="514" text-anchor="middle" font-family="Arial" font-size="10">1024B M2</text>
<rect x="900.1" y="203.2" width="50.1" height="278.8" fill="#f08c00"/>
<text x="925.2" y="197.2" text-anchor="middle" font-family="Arial" font-size="11">0.106</text>
<text x="925.2" y="500" text-anchor="middle" font-family="Arial" font-size="10">500 kbit/s</text>
<text x="925.2" y="514" text-anchor="middle" font-family="Arial" font-size="10">1024B M3</text>
</svg>