<svg xmlns="http://www.w3.org/2000/svg" width="920" height="520" viewBox="0 0 920 520">
<rect width="100%" height="100%" fill="white"/>
<text x="460.0" y="32" text-anchor="middle" font-family="Arial" font-size="22">RTT maximo por condicion y tamano</text>
<text x="20" y="260.0" transform="rotate(-90 20 260.0)" text-anchor="middle" font-family="Arial" font-size="14">RTT maximo (ms)</text>
<line x1="70" y1="450" x2="850" y2="450" stroke="#333"/>
<line x1="70" y1="70" x2="70" y2="450" stroke="#333"/>
<line x1="70" y1="450.0" x2="850" y2="450.0" stroke="#ddd"/>
<text x="62" y="454.0" text-anchor="end" font-family="Arial" font-size="12">0.00</text>
<line x1="70" y1="374.0" x2="850" y2="374.0" stroke="#ddd"/>
<text x="62" y="378.0" text-anchor="end" font-family="Arial" font-size="12">8.61</text>
<line x1="70" y1="298.0" x2="850" y2="298.0" stroke="#ddd"/>
<text x="62" y="302.0" text-anchor="end" font-family="Arial" font-size="12">17.21</text>
<line x1="70" y1="222.0" x2="850" y2="222.0" stroke="#ddd"/>
<text x="62" y="226.0" text-anchor="end" font-family="Arial" font-size="12">25.82</text>
<line x1="70" y1="146.0" x2="850" y2="146.0" stroke="#ddd"/>
<text x="62" y="150.0" text-anchor="end" font-family="Arial" font-size="12">34.42</text>
<line x1="70" y1="70.0" x2="850" y2="70.0" stroke="#ddd"/>
<text x="62" y="74.0" text-anchor="end" font-family="Arial" font-size="12">43.03</text>
<rect x="85.6" y="447.9" width="66.3" height="2.1" fill="#1971c2"/>
<text x="118.8" y="441.9" text-anchor="middle" font-family="Arial" font-size="11">0.235</text>
<text x="118.8" y="468" text-anchor="middle" font-family="Arial" font-size="11">Sin limitacion</text>
<text x="118.8" y="482" text-anchor="middle" font-family="Arial" font-size="11">120B M2</text>
<rect x="183.1" y="447.9" width="66.3" height="2.1" fill="#f08c00"/>
<text x="216.2" y="441.9" text-anchor="middle" font-family="Arial" font-size="11">0.240</text>
<text x="216.2" y="468" text-anchor="middle" font-family="Arial" font-size="11">Sin limitacion</text>
<text x="216.2" y="482" text-anchor="middle" font-family="Arial" font-size="11">120B M3</text>
<rect x="280.6" y="448.4" width="66.3" height="1.6" fill="#1971c2"/>
<text x="313.8" y="442.4" text-anchor="middle" font-family="Arial" font-size="11">0.184</text>
<text x="313.8" y="468" text-anchor="middle" font-family="Arial" font-size="11">100 kbit/s</text>
<text x="313.8" y="482" text-anchor="middle" font-family="Arial" font-size="11">120B M2</text>
<rect x="378.1" y="394.2" width="66.3" height="55.8" fill="#f08c00"/>
<text x="411.2" y="388.2" text-anchor="middle" font-family="Arial" font-size="11">6.315</text>
<text x="411.2" y="468" text-anchor="middle" font-family="Arial" font-size="11">100 kbit/s</text>
<text x="411.2" y="482" text-anchor="middle" font-family="Arial" font-size="11">120B M3</text>
<rect x="475.6" y="449.1" width="66.3" height="0.9" fill="#1971c2"/>
<text x="508.8" y="443.1" text-anchor="middle" font-family="Arial" font-size="11">0.103</text>
<text x="508.8" y="468" text-anchor="middle" font-family="Arial" font-size="11">Sin limitacion</text>
<text x="508.8" y="482" text-anchor="middle" font-family="Arial" font-size="11">512B M2</text>
<rect x="573.1" y="449.3" width="66.3" height="0.7" fill="#f08c00"/>
<text x="606.2" y="443.3" text-anchor="middle" font-family="Arial" font-size="11">0.076</text>
<text x="606.2" y="468" text-anchor="middle" font-family="Arial" font-size="11">Sin limitacion</text>
<text x="606.2" y="482" text-anchor="middle" font-family="Arial" font-size="11">512B M3</text>
<rect x="670.6" y="241.6" width="66.3" height="208.4" fill="#1971c2"/>
<text x="703.8" y="235.6" text-anchor="middle" font-family="Arial" font-size="11">23.598</text>
<text x="703.8" y="468" text-anchor="middle" font-family="Arial" font-size="11">100 kbit/s</text>
<text x="703.8" y="482" text-anchor="middle" font-family="Arial" font-size="11">512B M2</text>
<rect x="768.1" y="133.3" width="66.3" height="316.7" fill="#f08c00"/>
<text x="801.2" y="127.3" text-anchor="middle" font-family="Arial" font-size="11">35.855</text>
<text x="801.2" y="468" text-anchor="middle" font-family="Arial" font-size="11">100 kbit/s</text>
<text x="801.2" y="482" text-anchor="middle" font-family="Arial" font-size="11">512B M3</text>
</svg>