<svg xmlns="http://www.w3.org/2000/svg" width="920" height="520" viewBox="0 0 920 520">
<rect width="100%" height="100%" fill="white"/>
<text x="460.0" y="32" text-anchor="middle" font-family="Arial" font-size="22">RTT medio por condicion y tamano</text>
<text x="20" y="260.0" transform="rotate(-90 20 260.0)" text-anchor="middle" font-family="Arial" font-size="14">RTT medio (ms)</text>
<line x1="70" y1="450" x2="850" y2="450" stroke="#333"/>
<line x1="70" y1="70" x2="70" y2="450" stroke="#333"/>
<line x1="70" y1="450.0" x2="850" y2="450.0" stroke="#ddd"/>
<text x="62" y="454.0" text-anchor="end" font-family="Arial" font-size="12">0.00</text>
<line x1="70" y1="374.0" x2="850" y2="374.0" stroke="#ddd"/>
<text x="62" y="378.0" text-anchor="end" font-family="Arial" font-size="12">0.26</text>
<line x1="70" y1="298.0" x2="850" y2="298.0" stroke="#ddd"/>
<text x="62" y="302.0" text-anchor="end" font-family="Arial" font-size="12">0.52</text>
<line x1="70" y1="222.0" x2="850" y2="222.0" stroke="#ddd"/>
<text x="62" y="226.0" text-anchor="end" font-family="Arial" font-size="12">0.78</text>
<line x1="70" y1="146.0" x2="850" y2="146.0" stroke="#ddd"/>
<text x="62" y="150.0" text-anchor="end" font-family="Arial" font-size="12">1.04</text>
<line x1="70" y1="70.0" x2="850" y2="70.0" stroke="#ddd"/>
<text x="62" y="74.0" text-anchor="end" font-family="Arial" font-size="12">1.30</text>
<rect x="85.6" y="426.3" width="66.3" height="23.7" fill="#1971c2"/>
<text x="118.8" y="420.3" text-anchor="middle" font-family="Arial" font-size="11">0.081</text>
<text x="118.8" y="468" text-anchor="middle" font-family="Arial" font-size="11">Sin limitacion</text>
<text x="118.8" y="482" text-anchor="middle" font-family="Arial" font-size="11">120B M2</text>
<rect x="183.1" y="428.1" width="66.3" height="21.9" fill="#f08c00"/>
<text x="216.2" y="422.1" text-anchor="middle" font-family="Arial" font-size="11">0.075</text>
<text x="216.2" y="468" text-anchor="middle" font-family="Arial" font-size="11">Sin limitacion</text>
<text x="216.2" y="482" text-anchor="middle" font-family="Arial" font-size="11">120B M3</text>
<rect x="280.6" y="426.6" width="66.3" height="23.4" fill="#1971c2"/>
<text x="313.8" y="420.6" text-anchor="middle" font-family="Arial" font-size="11">0.080</text>
<text x="313.8" y="468" text-anchor="middle" font-family="Arial" font-size="11">100 kbit/s</text>
<text x="313.8" y="482" text-anchor="middle" font-family="Arial" font-size="11">120B M2</text>
<rect x="378.1" y="391.6" width="66.3" height="58.4" fill="#f08c00"/>
<text x="411.2" y="385.6" text-anchor="middle" font-family="Arial" font-size="11">0.200</text>
<text x="411.2" y="468" text-anchor="middle" font-family="Arial" font-size="11">100 kbit/s</text>
<text x="411.2" y="482" text-anchor="middle" font-family="Arial" font-size="11">120B M3</text>
<rect x="475.6" y="431.3" width="66.3" height="18.7" fill="#1971c2"/>
<text x="508.8" y="425.3" text-anchor="middle" font-family="Arial" font-size="11">0.064</text>
<text x="508.8" y="468" text-anchor="middle" font-family="Arial" font-size="11">Sin limitacion</text>
<text x="508.8" y="482" text-anchor="middle" font-family="Arial" font-size="11">512B M2</text>
<rect x="573.1" y="431.9" width="66.3" height="18.1" fill="#f08c00"/>
<text x="606.2" y="425.9" text-anchor="middle" font-family="Arial" font-size="11">0.062</text>
<text x="606.2" y="468" text-anchor="middle" font-family="Arial" font-size="11">Sin limitacion</text>
<text x="606.2" y="482" text-anchor="middle" font-family="Arial" font-size="11">512B M3</text>
<rect x="670.6" y="201.7" width="66.3" height="248.3" fill="#1971c2"/>
<text x="703.8" y="195.7" text-anchor="middle" font-family="Arial" font-size="11">0.850</text>
<text x="703.8" y="468" text-anchor="middle" font-family="Arial" font-size="11">100 kbit/s</text>
<text x="703.8" y="482" text-anchor="middle" font-family="Arial" font-size="11">512B M2</text>
<rect x="768.1" y="133.3" width="66.3" height="316.7" fill="#f08c00"/>
<text x="801.2" y="127.3" text-anchor="middle" font-family="Arial" font-size="11">1.084</text>
<text x="801.2" y="468" text-anchor="middle" font-family="Arial" font-size="11">100 kbit/s</text>
<text x="801.2" y="482" text-anchor="middle" font-family="Arial" font-size="11">512B M3</text>
</svg>